# xmcd
# 
# Track frame offsets:
#     182
#     15365
#     23800
#     34505
#     44675
#     55922
#     66000
#     78280
#     89732
#     103635
# 
# Disc length: 1530
# 
# Revision: 3
# Processed by: cddbd v1.5.2PL0 Copyright (c) Steve Scherf et al.
# Submitted via: fre:ac v1.0.17
# 
DISCID=7605f80a
DTITLE=Merle Haggard - Hag's Christmas
DYEAR=1973
DGENRE=Christmas
TTITLE0=Silver Bells
TTITLE1=Grandma's Homemade Christmas Card
TTITLE2=Jingle Bells
TTITLE3=Santa Claus and Popcorn
TTITLE4=White Christmas
TTITLE5=Bobby Wants A Puppy Dog For Christmas
TTITLE6=If We Make It Through December
TTITLE7=Winter Wonderland
TTITLE8=Daddy Won't Be Home Again For Christmas
TTITLE9=Silent Night
EXTD=
EXTT0=
EXTT1=
EXTT2=
EXTT3=
EXTT4=
EXTT5=
EXTT6=
EXTT7=
EXTT8=
EXTT9=
PLAYORDER=
